<svg width="24" height="25" viewBox="0 0 24 25" fill="none" xmlns="http://www.w3.org/2000/svg">
<path d="M17.8002 19.8847L15.6282 21.0227C15.5638 21.0563 15.4913 21.0712 15.4188 21.066C15.3463 21.0607 15.2767 21.0354 15.2178 20.9928C15.1589 20.9503 15.113 20.8923 15.0851 20.8251C15.0573 20.758 15.0487 20.6845 15.0602 20.6127L15.4752 18.2017L13.7182 16.4947C13.6658 16.444 13.6287 16.3796 13.6111 16.3088C13.5935 16.238 13.5962 16.1637 13.6188 16.0944C13.6414 16.025 13.6831 15.9634 13.7391 15.9166C13.795 15.8699 13.863 15.8397 13.9352 15.8297L16.3632 15.4777L17.4492 13.2847C17.4817 13.2194 17.5318 13.1645 17.5938 13.126C17.6558 13.0876 17.7273 13.0673 17.8002 13.0673C17.8732 13.0673 17.9447 13.0876 18.0067 13.126C18.0687 13.1645 18.1188 13.2194 18.1512 13.2847L19.2372 15.4777L21.6652 15.8297C21.7373 15.8401 21.805 15.8704 21.8607 15.9172C21.9164 15.9641 21.9579 16.0256 21.9805 16.0948C22.003 16.164 22.0058 16.2381 21.9885 16.3088C21.9711 16.3794 21.9343 16.4439 21.8822 16.4947L20.1252 18.2017L20.5392 20.6117C20.5517 20.6836 20.5437 20.7575 20.5162 20.8251C20.4887 20.8926 20.4429 20.9511 20.3838 20.9939C20.3248 21.0367 20.2549 21.0621 20.1822 21.0672C20.1094 21.0723 20.0367 21.0569 19.9722 21.0227L17.8002 19.8847Z" stroke="#541142" stroke-width="1.5" stroke-linecap="round" stroke-linejoin="round"/>
<path d="M6.20063 19.8847L4.02863 21.0227C3.96417 21.0563 3.89166 21.0712 3.81919 21.066C3.74672 21.0607 3.67714 21.0354 3.61822 20.9928C3.5593 20.9503 3.51336 20.8923 3.48554 20.8251C3.45771 20.758 3.44908 20.6845 3.46063 20.6127L3.87563 18.2017L2.11863 16.4947C2.06619 16.444 2.02905 16.3796 2.01147 16.3088C1.99389 16.238 1.99656 16.1637 2.01919 16.0944C2.04182 16.025 2.08349 15.9634 2.13944 15.9166C2.19539 15.8699 2.26338 15.8397 2.33563 15.8297L4.76363 15.4777L5.84963 13.2847C5.88211 13.2194 5.93217 13.1645 5.99418 13.126C6.05618 13.0876 6.12768 13.0673 6.20063 13.0673C6.27357 13.0673 6.34507 13.0876 6.40708 13.126C6.46909 13.1645 6.51915 13.2194 6.55163 13.2847L7.63763 15.4777L10.0656 15.8297C10.1377 15.8401 10.2054 15.8704 10.2611 15.9172C10.3168 15.9641 10.3583 16.0256 10.3809 16.0948C10.4034 16.164 10.4062 16.2381 10.3888 16.3088C10.3715 16.3794 10.3347 16.4439 10.2826 16.4947L8.52563 18.2017L8.93963 20.6117C8.95205 20.6836 8.94408 20.7575 8.91661 20.8251C8.88914 20.8926 8.84327 20.9511 8.78422 20.9939C8.72517 21.0367 8.6553 21.0621 8.58254 21.0672C8.50979 21.0723 8.43706 21.0569 8.37263 21.0227L6.20063 19.8847Z" stroke="#541142" stroke-width="1.5" stroke-linecap="round" stroke-linejoin="round"/>
<path d="M12.0014 9.88472L9.82941 11.0227C9.76495 11.0563 9.69244 11.0712 9.61997 11.066C9.5475 11.0607 9.47792 11.0354 9.419 10.9928C9.36008 10.9503 9.31415 10.8923 9.28632 10.8251C9.25849 10.758 9.24987 10.6845 9.26141 10.6127L9.67641 8.20172L7.91941 6.49472C7.86697 6.44403 7.82983 6.37961 7.81225 6.30881C7.79467 6.23802 7.79734 6.16371 7.81997 6.09437C7.8426 6.02503 7.88427 5.96344 7.94022 5.91665C7.99618 5.86985 8.06416 5.83973 8.13641 5.82972L10.5644 5.47772L11.6504 3.28472C11.6829 3.21941 11.7329 3.16445 11.795 3.12603C11.857 3.08761 11.9285 3.06726 12.0014 3.06726C12.0744 3.06726 12.1459 3.08761 12.2079 3.12603C12.2699 3.16445 12.3199 3.21941 12.3524 3.28472L13.4384 5.47772L15.8664 5.82972C15.9384 5.84009 16.0062 5.8704 16.0619 5.91724C16.1176 5.96408 16.1591 6.02557 16.1816 6.09477C16.2042 6.16396 16.207 6.23809 16.1896 6.30877C16.1723 6.37945 16.1355 6.44386 16.0834 6.49472L14.3264 8.20172L14.7404 10.6117C14.7528 10.6836 14.7449 10.7575 14.7174 10.8251C14.6899 10.8926 14.6441 10.9511 14.585 10.9939C14.526 11.0367 14.4561 11.0621 14.3833 11.0672C14.3106 11.0723 14.2378 11.0569 14.1734 11.0227L12.0014 9.88472Z" stroke="#EC2E3A" stroke-width="1.5" stroke-linecap="round" stroke-linejoin="round"/>
</svg>
