<svg width="24" height="25" viewBox="0 0 24 25" fill="none" xmlns="http://www.w3.org/2000/svg">
<path d="M5 8.76782H9" stroke="#EC2E3A" stroke-width="1.5" stroke-linecap="round" stroke-linejoin="round"/>
<path d="M9 16.7732H13" stroke="#EC2E3A" stroke-width="1.5" stroke-linecap="round" stroke-linejoin="round"/>
<path d="M14 9.76782L18 8.76782" stroke="#EC2E3A" stroke-width="1.5" stroke-linecap="round" stroke-linejoin="round"/>
<path d="M16 16.7709L19.923 15.7909" stroke="#EC2E3A" stroke-width="1.5" stroke-linecap="round" stroke-linejoin="round"/>
<path d="M8 4.77319H6C5.44772 4.77319 5 5.22091 5 5.77319V19.7732C5 20.3255 5.44772 20.7732 6 20.7732H8C8.55229 20.7732 9 20.3255 9 19.7732V5.77319C9 5.22091 8.55229 4.77319 8 4.77319Z" stroke="#541142" stroke-width="1.5" stroke-linecap="round" stroke-linejoin="round"/>
<path d="M12 4.77319H10C9.44772 4.77319 9 5.22091 9 5.77319V19.7732C9 20.3255 9.44772 20.7732 10 20.7732H12C12.5523 20.7732 13 20.3255 13 19.7732V5.77319C13 5.22091 12.5523 4.77319 12 4.77319Z" stroke="#541142" stroke-width="1.5" stroke-linecap="round" stroke-linejoin="round"/>
<path d="M13.8031 5.3297L15.9871 4.7997C16.5491 4.6647 17.1201 4.9897 17.2691 5.5317L20.9641 18.9497C21.0293 19.1953 21.0004 19.4565 20.8831 19.682C20.7659 19.9074 20.5686 20.081 20.3301 20.1687L20.1971 20.2097L18.0131 20.7397C17.4511 20.8747 16.8801 20.5497 16.7311 20.0077L13.0361 6.5897C12.9709 6.34405 12.9998 6.08291 13.117 5.85743C13.2343 5.63195 13.4315 5.45837 13.6701 5.3707L13.8031 5.3297Z" stroke="#541142" stroke-width="1.5" stroke-linecap="round" stroke-linejoin="round"/>
</svg>
