<svg width="24" height="25" viewBox="0 0 24 25" fill="none" xmlns="http://www.w3.org/2000/svg">
<path d="M8 13.4189V4.91895C8 4.52112 8.15804 4.13959 8.43934 3.85829C8.72064 3.57698 9.10218 3.41895 9.5 3.41895C9.89782 3.41895 10.2794 3.57698 10.5607 3.85829C10.842 4.13959 11 4.52112 11 4.91895V12.4189" stroke="#541142" stroke-width="1.5" stroke-linecap="round" stroke-linejoin="round"/>
<path d="M11 11.9163V9.91626C11 9.51844 11.158 9.1369 11.4393 8.8556C11.7206 8.57429 12.1022 8.41626 12.5 8.41626C12.8978 8.41626 13.2794 8.57429 13.5607 8.8556C13.842 9.1369 14 9.51844 14 9.91626V12.4163" stroke="#541142" stroke-width="1.5" stroke-linecap="round" stroke-linejoin="round"/>
<path d="M14 10.9189C14 10.5211 14.158 10.1396 14.4393 9.85828C14.7206 9.57698 15.1022 9.41895 15.5 9.41895C15.8978 9.41895 16.2794 9.57698 16.5607 9.85828C16.842 10.1396 17 10.5211 17 10.9189V12.4189" stroke="#541142" stroke-width="1.5" stroke-linecap="round" stroke-linejoin="round"/>
<path d="M17.0002 11.9216C17.0002 11.5238 17.1582 11.1423 17.4395 10.861C17.7208 10.5797 18.1024 10.4216 18.5002 10.4216C18.898 10.4216 19.2795 10.5797 19.5608 10.861C19.8421 11.1423 20.0002 11.5238 20.0002 11.9216V16.4216C20.0002 18.0129 19.368 19.5391 18.2428 20.6643C17.1176 21.7895 15.5915 22.4216 14.0002 22.4216H12.0002H12.2082C11.2145 22.4218 10.2364 22.1752 9.36157 21.7039C8.48676 21.2327 7.7427 20.5515 7.19618 19.7216L7.00018 19.4216C6.68818 18.9426 5.59318 17.0336 3.71418 13.6936C3.52263 13.3532 3.47147 12.9514 3.57157 12.5738C3.67166 12.1962 3.91513 11.8725 4.25018 11.6716C4.60706 11.4575 5.02526 11.3687 5.43834 11.4195C5.85143 11.4702 6.23572 11.6575 6.53018 11.9516L8.00018 13.4216" stroke="#541142" stroke-width="1.5" stroke-linecap="round" stroke-linejoin="round"/>
<path d="M5 3.41626L4 2.41626" stroke="#EC2E3A" stroke-width="1.5" stroke-linecap="round" stroke-linejoin="round"/>
<path d="M4 7.42163H3" stroke="#EC2E3A" stroke-width="1.5" stroke-linecap="round" stroke-linejoin="round"/>
<path d="M14 3.41626L15 2.41626" stroke="#EC2E3A" stroke-width="1.5" stroke-linecap="round" stroke-linejoin="round"/>
<path d="M15 6.41895H16" stroke="#EC2E3A" stroke-width="1.5" stroke-linecap="round" stroke-linejoin="round"/>
</svg>
