<?xml version="1.0" encoding="UTF-8"?>
<svg width="39.6608483px" height="67.7731944px" viewBox="0 0 39.6608483 67.7731944" version="1.1" xmlns="http://www.w3.org/2000/svg" xmlns:xlink="http://www.w3.org/1999/xlink">
    <title>Group-1</title>
    <g id="Page-1" stroke="none" stroke-width="1" fill="none" fill-rule="evenodd">
        <g id="Group-1" fill="#FDCF38" fill-rule="nonzero">
            <path d="M25.8436867,44.4205376 C27.6983867,43.6165376 29.7338867,43.5732376 31.5963867,44.3355376 C32.8224867,44.8470376 34.0677867,45.8277376 34.4569867,47.3730376 C33.8922867,45.2729376 33.8241867,42.9501376 34.4939867,40.9160376 C35.1911867,38.9057376 36.7359867,37.2793376 38.5053867,37.0553376 C36.7001867,37.7010376 34.8675867,38.3229376 33.0131867,38.1210376 C31.1779867,37.8854376 29.2606867,36.5726376 28.6603867,34.3912376 C29.8890867,35.7601376 30.1052867,38.1109376 29.4574867,39.9629376 C28.8097867,41.8149376 27.4377867,43.1387376 25.8436867,44.4205376 Z" id="Path"></path>
            <path d="M39.1759867,35.8822376 C39.4227867,36.0965376 39.6118867,36.4116376 39.6419867,36.7897376 C39.7487867,37.5361376 39.3921867,38.2321376 38.8217867,38.4407376 C38.4103867,38.5863376 37.9524867,38.7417376 37.4944867,38.8971376 C36.6772867,39.3942376 35.9723867,40.3408376 35.5607867,41.4919376 C35.0312867,42.9930376 35.0335867,44.8555376 35.4911867,46.7111376 C35.5267867,46.7923376 35.5157867,46.8833376 35.5514867,46.9646376 C35.7322867,47.7250376 35.3646867,48.5120376 34.7750867,48.7542376 C34.1580867,48.9726376 33.5246867,48.5734376 33.2972867,47.8228376 C33.2890867,47.7654376 33.2533867,47.6842376 33.2451867,47.6267376 C32.8944867,46.5176376 31.7264867,45.9055376 31.1917867,45.6926376 C29.5603867,45.0301376 27.8136867,45.0720376 26.2038867,45.7356376 C25.6416867,46.0016376 25.0165867,45.6599376 24.7589867,45.0339376 C24.4738867,44.3841376 24.6742867,43.6027376 25.1651867,43.1742376 C26.4184867,42.2011376 27.7513867,40.9450376 28.3193867,39.3766376 C28.5936867,38.6092376 28.6569867,37.7088376 28.4953867,36.9148376 C28.0704867,36.2944376 27.7031867,35.5731376 27.4756867,34.8225376 C27.2921867,34.2105376 27.4814867,33.5201376 27.9339867,33.1589376 C28.3864867,32.7976376 28.9705867,32.8523376 29.3707867,33.3004376 C29.9081867,33.8677376 30.2754867,34.5889376 30.5576867,35.3871376 C31.2403867,36.1308376 32.2081867,36.5188376 33.0691867,36.6631376 C34.2455867,36.8298376 35.4301867,36.5513376 36.6257867,36.1817376 C37.1605867,35.8918376 37.7309867,35.6832376 38.3259867,35.6469376 C38.6797867,35.6021376 38.9566867,35.6918376 39.1759867,35.8822376 Z M32.8319867,43.3962376 C32.8706867,42.3235376 33.0846867,41.3026376 33.4084867,40.3770376 C33.5154867,40.1179376 33.5758867,39.8686376 33.7102867,39.6334376 C33.4223867,39.6348376 33.1810867,39.6263376 32.8848867,39.5703376 C32.1993867,39.4778376 31.4974867,39.2705376 30.8805867,38.9861376 C30.8145867,39.5323376 30.6746867,40.0644376 30.5072867,40.5728376 C30.2905867,41.2393376 29.9722867,41.8681376 29.5910867,42.3918376 C30.3971867,42.4885376 31.1923867,42.6762376 31.9573867,42.9886376 C32.2616867,43.1020376 32.5660867,43.2155376 32.8319867,43.3962376 Z" id="Shape"></path>
            <path d="M29.8622867,66.3478376 C29.9225867,65.5978376 29.9008867,64.7765376 29.6739867,64.0279376 C29.4471867,63.2792376 29.0425867,62.6269376 28.4464867,62.3098376 C27.7218867,61.9313376 26.9041867,62.0737376 26.1411867,62.2635376 C26.7564867,62.0457376 27.4264867,62.3768376 28.0499867,62.2162376 C28.6543867,62.0892376 29.1385867,61.4565376 29.3464867,60.7345376 C29.5544867,60.0124376 29.5409867,59.2484376 29.4071867,58.4803376 C29.5463867,59.4538376 29.8333867,60.4552376 30.3938867,61.1927376 C30.9542867,61.9302376 31.7690867,62.4372376 32.6059867,62.2613376 C31.8457867,61.8018376 30.8447867,62.3366376 30.3468867,63.2081376 C29.8490867,64.0796376 29.7804867,65.2737376 29.8622867,66.3478376 Z" id="Path"></path>
            <path d="M30.1112867,57.3843376 C30.3299867,57.5743376 30.5186867,57.8886376 30.5951867,58.2560376 C30.6306867,58.3370376 30.6197867,58.4278376 30.6552867,58.5088376 C30.7891867,59.2771376 30.9996867,59.9113376 31.3249867,60.3443376 C31.4699867,60.5203376 31.5874867,60.6726376 31.7707867,60.7816376 C32.2438867,60.7411376 32.7334867,60.8152376 33.1545867,61.0806376 C33.6222867,61.3363376 33.8791867,61.9607376 33.8216867,62.5627376 C33.7449867,63.1983376 33.3564867,63.6634376 32.8723867,63.7946376 C32.5003867,63.8728376 32.0928867,63.8700376 31.7154867,63.7429376 C31.5841867,63.8295376 31.4801867,63.9398376 31.3844867,64.1074376 C31.2311867,64.3756376 31.1600867,64.7150376 31.0888867,65.0544376 C31.1270867,65.4889376 31.0995867,65.9666376 31.0994867,66.4680376 C31.0391867,67.2181376 30.5467867,67.7936376 29.9450867,67.7726376 C29.3433867,67.7516376 28.8347867,67.2095376 28.7747867,66.4552376 C28.7283867,65.9635376 28.7284867,65.4621376 28.7640867,65.0416376 C28.7394867,64.8698376 28.7149867,64.6980376 28.6438867,64.5360376 C28.5208867,64.1784376 28.3595867,63.8878376 28.1680867,63.7216376 C27.7687867,63.7760376 27.4269867,63.7299376 27.1123867,63.7075376 C26.9647867,63.6796376 26.7705867,63.6614376 26.6501867,63.6572376 C26.5845867,63.7005376 26.5106867,63.6865376 26.4450867,63.7298376 C25.8405867,63.8568376 25.2471867,63.3916376 25.0941867,62.6569376 C24.9411867,61.9221376 25.3077867,61.1371376 25.9040867,60.9528376 C26.0626867,60.8900376 26.2021867,60.8607376 26.3416867,60.8313376 C26.8531867,60.7238376 27.4849867,60.6205376 28.1222867,60.7225376 C28.2261867,60.6122376 28.3027867,60.4781376 28.3711867,60.2868376 C28.4697867,59.9711376 28.4779867,59.5269376 28.4315867,59.0352376 C28.4233867,58.9779376 28.4070867,58.8634376 28.3988867,58.8061376 C28.2649867,58.0378376 28.6862867,57.3003376 29.3099867,57.1398376 C29.5150867,57.0671376 29.8377867,57.1468376 30.1112867,57.3843376 Z" id="Path"></path>
            <path d="M8.3316867,10.7804376 C9.2445867,10.1156376 10.2039867,9.44103761 11.2454867,9.34033761 C12.9941867,9.15013761 14.5726867,10.6214376 15.9400867,11.9597376 C15.2247867,11.4893376 14.8631867,10.4717376 14.7893867,9.45263761 C14.7429867,8.45743761 14.9378867,7.47053761 15.1408867,6.54113761 C15.3136867,5.73623761 15.4864867,4.93143761 15.8703867,4.25956761 C16.3885867,3.35255761 17.2246867,2.82210761 18.0414867,2.32525761 C15.4454867,4.64445761 11.4520867,4.24236761 9.1942867,1.37681761 C10.4931867,2.40437761 11.0573867,4.50270761 10.7445867,6.34203761 C10.4316867,8.18123761 9.3076867,9.71813761 8.3316867,10.7804376 Z" id="Path"></path>
            <path d="M18.7121867,1.14984761 C18.8491867,1.26883761 18.9395867,1.39761761 19.0382867,1.58378761 C19.3697867,2.22347761 19.2242867,3.05210761 18.7336867,3.48036761 C18.3087867,3.86524761 17.8290867,4.20252761 17.3411867,4.48242761 C17.1245867,4.64617761 16.9436867,4.89113761 16.8093867,5.12623761 C16.5406867,5.59653761 16.3979867,6.27673761 16.2553867,6.95703761 C16.0633867,7.79543761 15.8986867,8.65763761 15.9314867,9.38963761 C15.9423867,9.80113761 16.0737867,10.2168376 16.2272867,10.4506376 C16.3642867,10.5696376 16.4820867,10.7222376 16.6190867,10.8412376 C17.0931867,11.3031376 17.1888867,12.1401376 16.8708867,12.7686376 C16.5253867,13.3732376 15.8620867,13.6013376 15.3304867,13.2401376 C15.0646867,13.0596376 14.8180867,12.8454376 14.6097867,12.5640376 C13.4972867,11.4973376 12.3984867,10.6938376 11.2829867,10.7805376 C10.4744867,10.8322376 9.6739867,11.4438376 8.8927867,12.0218376 C8.3747867,12.4263376 7.7005867,12.2429376 7.3224867,11.6130376 C6.9717867,11.0069376 7.0431867,10.1642376 7.5256867,9.67863761 C8.3206867,8.86123761 9.3102867,7.55963761 9.5983867,6.05073761 C9.7657867,5.04023761 9.5631867,3.95962761 9.0946867,3.20094761 C8.8206867,2.96296761 8.6123867,2.68160761 8.3849867,2.43383761 C7.9492867,1.90471761 7.9275867,1.08169761 8.3277867,0.524647613 C8.7006867,-0.0561923869 9.3803867,-0.169522387 9.8735867,0.258837613 C10.1750867,0.520607613 10.4572867,0.815957613 10.7202867,1.14491761 C12.2630867,2.53495761 14.4664867,2.84030761 16.2179867,1.99924761 C16.6702867,1.63816761 17.1115867,1.36806761 17.5336867,1.13155761 C17.9393867,0.780267613 18.3833867,0.864277613 18.7121867,1.14984761 Z M13.6294867,8.39563761 C13.6816867,7.58663761 13.8627867,6.83923761 14.0053867,6.15893761 C14.0849867,5.87623761 14.1370867,5.56973761 14.2083867,5.22953761 C13.4656867,5.23793761 12.7530867,5.12163761 12.0241867,4.89063761 C12.0596867,5.47433761 12.0211867,6.04403761 11.9360867,6.62343761 C11.8537867,7.05453761 11.7632867,7.42823761 11.6261867,7.81183761 C12.3304867,7.87063761 12.9854867,8.08763761 13.6294867,8.39563761 Z" id="Shape"></path>
            <path d="M1.1230867,55.3757376 C2.9372867,53.6350376 6.3548867,50.5230376 8.6510867,50.3063376 C12.2022867,49.9736376 15.1060867,53.5004376 17.5331867,56.7136376 C15.7964867,53.7985376 14.9752867,50.0704376 15.3020867,46.4852376 C15.6288867,42.9000376 17.0844867,39.4911376 19.3181867,37.1599376 C14.7466867,41.9329376 7.2252867,41.6817376 2.8859867,36.5063376 C4.5378867,38.4936376 6.1101867,40.7636376 6.4849867,43.5512376 C6.7695867,45.7077376 6.2457867,47.9160376 5.3383867,49.7911376 C4.3762867,51.6186376 1.5944867,54.4787376 1.1230867,55.3757376 Z" id="Path"></path>
            <path d="M19.9889867,35.9854376 C20.0711867,36.0567376 20.1533867,36.1281376 20.2163867,36.2330376 C20.6408867,36.8529376 20.5776867,37.7526376 20.0953867,38.2381376 C18.0977867,40.3717376 16.7793867,43.3966376 16.4964867,46.6176376 C16.2136867,49.8385376 16.9307867,53.1743376 18.4863867,55.8315376 C18.8643867,56.4612376 18.7737867,57.3371376 18.2914867,57.8226376 C17.8091867,58.3080376 17.1050867,58.2492376 16.6887867,57.6867376 C14.4346867,54.6740376 11.7941867,51.4766376 8.7832867,51.7254376 C7.4078867,51.8372376 5.0952867,53.4461376 1.8837867,56.4848376 C1.4398867,56.9032376 0.790586696,56.8919376 0.382386696,56.3867376 C-0.0448133037,55.9152376 -0.132413304,55.1358376 0.212986696,54.5314376 C0.462386696,54.0948376 0.928186696,53.4946376 1.7448867,52.4957376 C2.6463867,51.4198376 3.8713867,49.9214376 4.3345867,48.9671376 C5.1924867,47.2504376 5.5242867,45.3783376 5.3136867,43.7384376 C5.0073867,41.2618376 3.4050867,39.1167376 2.0711867,37.5061376 C1.6082867,36.9533376 1.5974867,36.0396376 2.0441867,35.4730376 C2.4908867,34.9064376 3.2332867,34.8980376 3.6961867,35.4508376 C7.5992867,40.0965376 14.4046867,40.3797376 18.5588867,36.0496376 C18.9561867,35.6411376 19.5507867,35.6047376 19.9889867,35.9854376 Z M14.3065867,51.0962376 C14.0575867,49.5235376 13.9948867,47.9116376 14.1267867,46.3179376 C14.2886867,44.5997376 14.6725867,42.9235376 15.2866867,41.3467376 C12.6343867,42.2587376 9.7221867,42.1913376 7.1059867,41.1752376 C7.3249867,41.8678376 7.4974867,42.5703376 7.6041867,43.3161376 C7.8557867,45.2428376 7.5841867,47.3681376 6.8330867,49.3284376 C7.4413867,49.0528376 8.0386867,48.8681376 8.5865867,48.8416376 C10.6687867,48.6403376 12.5534867,49.5737376 14.3065867,51.0962376 Z" id="Shape"></path>
        </g>
    </g>
</svg>