<?xml version="1.0" encoding="UTF-8"?>
<svg width="49.973959px" height="58.8269999px" viewBox="0 0 49.973959 58.8269999" version="1.1" xmlns="http://www.w3.org/2000/svg" xmlns:xlink="http://www.w3.org/1999/xlink">
    <title>Group-2</title>
    <g id="Page-1" stroke="none" strokeWidth="1" fill="none" fill-rule="evenodd">
        <g id="Group-2" transform="translate(0, 0)" fill="#FDCF38" fill-rule="nonzero">
            <path d="M15.0476001,27.9252999 C13.9421001,29.9515999 12.3489001,31.4713999 10.5282001,32.1889999 C9.32522008,32.6533999 7.89463008,32.7377999 6.88672008,31.7246999 C8.28479008,33.0755999 9.39025008,34.9752999 9.78040008,37.1704999 C10.1381001,39.3656999 9.65034008,41.8563999 8.34981008,43.3338999 C9.48778008,41.4763999 10.6583001,39.6189999 12.2189001,38.4368999 C13.7795001,37.2970999 15.8929001,37.0015999 17.3560001,38.3946999 C15.7628001,38.1413999 14.5273001,36.3261999 14.2022001,34.2997999 C13.8771001,32.2734999 14.3648001,30.1626999 15.0476001,27.9252999 Z" id="Path"></path>
            <path d="M8.34978008,44.8114999 C8.05716008,44.8114999 7.76455008,44.6847999 7.56947008,44.3892999 C7.14680008,43.8404999 7.11429008,42.9961999 7.47193008,42.4051999 C7.73204008,41.9829999 8.02465008,41.5186999 8.31728008,41.0542999 C8.73995008,40.0410999 8.87000008,38.7323999 8.67492008,37.4659999 C8.41481008,35.8195999 7.56947008,34.2575999 6.36647008,33.0333999 C6.30144008,32.9910999 6.26893008,32.9066999 6.20390008,32.8644999 C5.71620008,32.3578999 5.65118008,31.4291999 6.00883008,30.7959999 C6.39899008,30.1626999 7.08176008,30.0360999 7.60198008,30.5003999 C7.63449008,30.5426999 7.69952008,30.5848999 7.73204008,30.6270999 C8.51236008,31.3024999 9.71536008,30.9647999 10.2356001,30.7536999 C11.8287001,30.1204999 13.1943001,28.8117999 14.1697001,27.0809999 C14.4948001,26.4477999 15.1451001,26.2788999 15.6328001,26.6165999 C16.1530001,26.9542999 16.3481001,27.7563999 16.1530001,28.4740999 C15.6003001,30.2048999 15.1126001,32.2312999 15.3727001,33.9620999 C15.5027001,34.8063999 15.8604001,35.6084999 16.3481001,36.1572999 C16.9658001,36.3683999 17.5836001,36.7060999 18.1038001,37.1704999 C18.5265001,37.5503999 18.6890001,38.2680999 18.4940001,38.9012999 C18.2989001,39.5344999 17.8112001,39.9144999 17.2910001,39.8299999 C16.6082001,39.7455999 15.9904001,39.4078999 15.4052001,38.9434999 C14.5273001,38.8168999 13.5845001,39.1967999 12.8366001,39.7033999 C11.8287001,40.4210999 11.0159001,41.5186999 10.2356001,42.7006999 C9.94295008,43.3338999 9.58530008,43.9248999 9.13011008,44.3892999 C8.87000008,44.6847999 8.60989008,44.8114999 8.34978008,44.8114999 Z M9.97545008,33.8776999 C10.4306001,34.8063999 10.7233001,35.8195999 10.8858001,36.8326999 C10.9184001,37.1282999 10.9834001,37.3814999 10.9834001,37.6770999 C11.2110001,37.4659999 11.4060001,37.2970999 11.6662001,37.1282999 C12.2514001,36.7060999 12.9017001,36.3683999 13.5194001,36.1572999 C13.3243001,35.6506999 13.1943001,35.1018999 13.0967001,34.5530999 C12.9667001,33.8354999 12.9342001,33.0755999 12.9992001,32.3578999 C12.3164001,32.8644999 11.6011001,33.2866999 10.8533001,33.5821999 C10.5607001,33.7087999 10.2681001,33.8354999 9.97545008,33.8776999 Z" id="Shape"></path>
            <path d="M1.55475008,12.9806999 C1.84737008,13.6561999 2.23753008,14.3315999 2.75774008,14.7959999 C3.27796008,15.2602999 3.89570008,15.5135999 4.51345008,15.3447999 C5.26125008,15.1336999 5.84650008,14.4159999 6.36671008,13.6983999 C5.97655008,14.3315999 5.29378008,14.5426999 4.87111008,15.1336999 C4.44843008,15.6824999 4.35088008,16.5689999 4.51345008,17.3288999 C4.67601008,18.0887999 5.03366008,18.7219999 5.48885008,19.2707999 C4.93612008,18.5531999 4.25334008,17.9198999 3.47302008,17.7087999 C2.69270008,17.4977999 1.81485008,17.6665999 1.22961008,18.4264999 C2.04245008,18.2575999 2.59518008,17.0755999 2.59518008,15.9779999 C2.59518008,14.8803999 2.10747008,13.8249999 1.55475008,12.9806999 Z" id="Path"></path>
            <path d="M5.42370008,20.7063999 C5.16359008,20.7063999 4.87098008,20.5796999 4.64339008,20.3263999 C4.57836008,20.2841999 4.54585008,20.1997999 4.48082008,20.1575999 C4.02564008,19.6087999 3.57045008,19.2287999 3.11526008,19.1021999 C2.92018008,19.0599999 2.75761008,19.0176999 2.56253008,19.0599999 C2.20489008,19.4398999 1.78222008,19.7353999 1.32703008,19.8197999 C0.83933008,19.9464999 0.35162708,19.6087999 0.12403408,19.0599999 C-0.10355992,18.4688999 -0.00600767983,17.7934999 0.31912508,17.3290999 C0.57923208,16.9913999 0.90435308,16.6958999 1.26200008,16.5269999 C1.32703008,16.3581999 1.35954008,16.1892999 1.35954008,15.9781999 C1.35954008,15.6404999 1.26200008,15.3027999 1.16446008,14.9650999 C0.93687008,14.6272999 0.74179008,14.2051999 0.51419708,13.7829999 C0.22157708,13.1075999 0.35163108,12.2632999 0.83933008,11.8410999 C1.32703008,11.4189999 1.97730008,11.5033999 2.36746008,12.0943999 C2.62757008,12.4742999 2.85516008,12.8964999 3.01773008,13.2763999 C3.11527008,13.4030999 3.21281008,13.5296999 3.34286008,13.6141999 C3.60297008,13.8251999 3.86307008,13.9518999 4.09066008,13.9518999 C4.38328008,13.6141999 4.67589008,13.4030999 4.93600008,13.1919999 C5.06605008,13.1075999 5.22862008,12.9808999 5.32616008,12.8964999 C5.35868008,12.8120999 5.42371008,12.7698999 5.45622008,12.6853999 C5.87890008,12.1365999 6.56167008,12.0943999 7.01686008,12.6009999 C7.47205008,13.1075999 7.53708008,14.0362999 7.14692008,14.6272999 C7.04938008,14.7961999 6.95183008,14.9227999 6.85429008,15.0494999 C6.49665008,15.5138999 6.04146008,16.0626999 5.48873008,16.4425999 C5.45622008,16.6114999 5.45622008,16.7802999 5.48873008,16.9913999 C5.55376008,17.3290999 5.74885008,17.7090999 6.00895008,18.0889999 C6.04147008,18.1311999 6.10648008,18.2155999 6.13900008,18.2578999 C6.59418008,18.8066999 6.59419008,19.7353999 6.17152008,20.3263999 C6.04147008,20.5374999 5.74883008,20.7063999 5.42370008,20.7063999 Z" id="Path"></path>
            <path d="M45.3174001,43.1649999 C44.8948001,44.3892999 44.4396001,45.6557999 43.6593001,46.5000999 C42.3587001,47.9353999 40.4404001,47.8509999 38.7498001,47.7242999 C39.5301001,47.5976999 40.2779001,48.1886999 40.7981001,48.9907999 C41.2858001,49.7928999 41.5784001,50.7637999 41.8385001,51.6925999 C42.0661001,52.4945999 42.2937001,53.2966999 42.2937001,54.1409999 C42.2937001,55.2808999 41.8710001,56.3361999 41.4484001,57.3493999 C42.4563001,53.5077999 45.8051001,50.9326999 48.8939001,51.6925999 C47.3983001,51.7769999 46.0002001,50.4260999 45.4150001,48.6529999 C44.8297001,46.8799999 45.0248001,44.7691999 45.3174001,43.1649999 Z" id="Path"></path>
            <path d="M41.4484001,58.8269999 C41.2858001,58.8269999 41.1557001,58.7847999 40.9932001,58.7002999 C40.4404001,58.4047999 40.1803001,57.6026999 40.3754001,56.8850999 C40.5380001,56.2517999 40.7656001,55.6185999 41.0257001,55.0275999 C41.1232001,54.7320999 41.1557001,54.3943999 41.1557001,54.0988999 C41.1557001,53.5077999 40.9606001,52.8323999 40.7656001,52.1569999 C40.5380001,51.3125999 40.2779001,50.4682999 39.9202001,49.8772999 C39.7251001,49.5395999 39.4325001,49.2862999 39.2049001,49.2018999 C39.0424001,49.2018999 38.8798001,49.1596999 38.7172001,49.1596999 C38.1320001,49.1173999 37.6768001,48.4841999 37.6443001,47.7242999 C37.6443001,46.9644999 38.0670001,46.2889999 38.6522001,46.2045999 C38.9448001,46.1623999 39.2374001,46.1623999 39.5301001,46.2467999 C40.8956001,46.3311999 42.1311001,46.2045999 42.9765001,45.3180999 C43.5942001,44.6847999 43.9519001,43.5871999 44.3095001,42.5317999 C44.5371001,41.8141999 45.1549001,41.4763999 45.7401001,41.7296999 C46.2928001,41.9829999 46.6180001,42.7428999 46.4554001,43.5027999 C46.1953001,44.7691999 46.0002001,46.5844999 46.4554001,48.0620999 C46.7805001,49.0329999 47.4308001,49.7928999 48.1461001,50.0883999 C48.4712001,50.0883999 48.7639001,50.1727999 49.0565001,50.2149999 C49.6417001,50.3416999 50.0319001,51.0170999 49.9669001,51.7769999 C49.9343001,52.5368999 49.4466001,53.1278999 48.8614001,53.1278999 C48.5038001,53.1278999 48.1461001,53.0856999 47.7885001,53.0012999 C45.9352001,52.9589999 44.0494001,54.3098999 43.0415001,56.2940999 C42.8464001,56.9272999 42.6188001,57.4760999 42.3912001,57.9826999 C42.2287001,58.5736999 41.8385001,58.8269999 41.4484001,58.8269999 Z M42.1962001,49.0329999 C42.5213001,49.7506999 42.7164001,50.5104999 42.9115001,51.1859999 C42.9765001,51.4814999 43.0740001,51.7769999 43.1716001,52.1146999 C43.7568001,51.5658999 44.3746001,51.1437999 45.0573001,50.8060999 C44.7647001,50.3416999 44.5371001,49.8350999 44.3420001,49.2862999 C44.2120001,48.8640999 44.1145001,48.4841999 44.0494001,48.0620999 C43.4642001,48.5263999 42.8464001,48.8218999 42.1962001,49.0329999 Z" id="Shape"></path>
            <path d="M30.1012001,1.41393993 C29.4509001,4.20015993 28.1504001,9.30821993 26.4272001,11.1656999 C23.7611001,14.0362999 19.8595001,13.1919999 16.4781001,12.2632999 C19.1767001,13.4452999 21.5177001,15.9781999 22.8833001,19.2287999 C24.2488001,22.4793999 24.6390001,26.4054999 23.9237001,29.9937999 C25.3868001,22.6482999 31.4668001,17.3713999 37.2541001,18.5533999 C35.0432001,18.0889999 32.7673001,17.3290999 31.2067001,15.2605999 C30.0037001,13.6563999 29.4184001,11.4189999 29.2884001,9.18156993 C29.2233001,6.94414993 30.1337001,2.51153993 30.1012001,1.41393993 Z" id="Path"></path>
            <path d="M23.9236001,31.4712999 C23.8260001,31.4712999 23.7285001,31.4712999 23.6309001,31.4290999 C23.0132001,31.2179999 22.6555001,30.4158999 22.8181001,29.6560999 C23.4359001,26.4054999 23.1107001,22.9015999 21.8752001,19.9886999 C20.6397001,17.0758999 18.5589001,14.7961999 16.1204001,13.6985999 C15.5351001,13.4452999 15.2100001,12.6432999 15.3726001,11.8833999 C15.5351001,11.1234999 16.1204001,10.6590999 16.7056001,10.8279999 C19.8594001,11.7144999 23.4034001,12.4743999 25.6793001,10.0680999 C26.7197001,8.97050993 27.8252001,5.93100993 28.9956001,1.03401993 C29.1582001,0.358573929 29.6784001,-0.105799071 30.2311001,0.0208469286 C30.7839001,0.105277929 31.2065001,0.696296929 31.2065001,1.45616993 C31.2065001,2.00496993 31.1090001,2.84927993 30.9139001,4.28460993 C30.6863001,5.84657993 30.3937001,7.99955993 30.4587001,9.13937993 C30.5563001,11.2078999 31.1415001,13.0231999 32.0519001,14.2473999 C33.4174001,16.1048999 35.6609001,16.7380999 37.4491001,17.1180999 C38.0668001,17.2446999 38.4895001,18.0045999 38.3920001,18.8066999 C38.2944001,19.6087999 37.7092001,20.1575999 37.0914001,20.0309999 C31.8893001,18.9755999 26.3621001,23.7036999 25.0290001,30.3736999 C24.8990001,31.0069999 24.4438001,31.4712999 23.9236001,31.4712999 Z M21.5826001,14.6273999 C22.4930001,15.7671999 23.2733001,17.0758999 23.8911001,18.5111999 C24.5413001,20.0731999 24.9965001,21.7617999 25.2241001,23.5347999 C26.9148001,20.8329999 29.2557001,18.7644999 31.7918001,17.7090999 C31.3041001,17.2869999 30.8489001,16.8225999 30.4262001,16.2737999 C29.3533001,14.8384999 28.6055001,12.8542999 28.3129001,10.6590999 C27.9552001,11.3345999 27.5651001,11.9255999 27.1424001,12.3476999 C25.5817001,14.0363999 23.6635001,14.6273999 21.5826001,14.6273999 Z" id="Shape"></path>
        </g>
    </g>
</svg>